<?xml version="1.0" encoding="utf-8"?>
<!-- Generator: Adobe Illustrator 23.0.4, SVG Export Plug-In . SVG Version: 6.00 Build 0)  -->
<svg version="1.1" id="Layer_1" xmlns="http://www.w3.org/2000/svg" xmlns:xlink="http://www.w3.org/1999/xlink" x="0px" y="0px"
	 width="137.6px" height="50px" viewBox="0 0 137.6 50" style="enable-background:new 0 0 137.6 50;" xml:space="preserve">
<style type="text/css">
	.st0{fill:url(#SVGID_1_);}
	.st1{fill:#006CB1;}
	.st2{fill:url(#SVGID_2_);}
	.st3{fill:#EC681C;}
	.st4{fill:url(#SVGID_3_);}
	.st5{fill:url(#SVGID_4_);}
	.st6{fill:url(#SVGID_5_);}
	.st7{fill:url(#SVGID_6_);}
	.st8{fill:#4E4D4D;}
	.st9{fill:url(#SVGID_7_);}
	.st10{fill:url(#SVGID_8_);}
	.st11{fill:url(#SVGID_9_);}
	.st12{fill:url(#SVGID_10_);}
	.st13{fill:url(#SVGID_11_);}
	.st14{fill:url(#SVGID_12_);}
	.st15{fill:#ED6C1D;}
	.st16{fill:#AB2717;}
	.st17{fill:#0478BB;}
</style>
<g>
	<g>
		<linearGradient id="SVGID_1_" gradientUnits="userSpaceOnUse" x1="11.961" y1="21.4789" x2="46.1981" y2="34.5216">
			<stop  offset="0" style="stop-color:#0478BB"/>
			<stop  offset="1" style="stop-color:#0F1024"/>
		</linearGradient>
		<path class="st0" d="M4.1,22.5c1.4-0.7,4.5-1.6,10.7-0.3C33,26,45,34.8,45,34.8S30.4,21.4,8.4,17.5c-3.3-0.6-4.8,1-5.4,2
			C2.9,19.7,2.7,20.7,4.1,22.5z"/>
		<path class="st1" d="M2.8,19.9c0.1-0.1,0.1-0.3,0.2-0.3C2.9,19.7,2.8,19.8,2.8,19.9z"/>
		<linearGradient id="SVGID_2_" gradientUnits="userSpaceOnUse" x1="21.6978" y1="37.9783" x2="0.9111" y2="23.5091">
			<stop  offset="0" style="stop-color:#E8491E"/>
			<stop  offset="1" style="stop-color:#AB2717"/>
		</linearGradient>
		<path class="st2" d="M28.2,36.2c0,0-9.5-3.2-16.5-7.5c-4.3-2.7-6.5-4.7-7.6-6.1c-1.4-1.8-1.2-2.8-1.1-3c0,0,0,0,0,0
			c0,0,0,0.1-0.1,0.1c0,0.1-0.1,0.2-0.2,0.3C2.1,21.3,0.1,25.2,0,26c-0.1,0.9,0,3.7,7.8,10.2c7.8,6.5,16.3,9.8,16.3,9.8l-2.5,3.5
			l14.1-5.1L29.6,32L28.2,36.2z"/>
		<path class="st3" d="M3,19.4C3,19.4,3,19.4,3,19.4C3,19.4,3,19.4,3,19.4z"/>
	</g>
	<g>
		<linearGradient id="SVGID_3_" gradientUnits="userSpaceOnUse" x1="28.109" y1="13.4243" x2="48.9839" y2="53.3321">
			<stop  offset="0" style="stop-color:#0478BB"/>
			<stop  offset="1" style="stop-color:#0F1024"/>
		</linearGradient>
		<path class="st4" d="M26,5.2c-0.8,1-1.6,2.7-1.3,5.4c0.5,5,1,8.9,5.6,18.5C36.7,42.7,46.9,50,46.9,50s-8.7-7.8-13.8-23.8
			c-3.6-11.3-3.2-17.3-2.6-20C28,4.5,26.3,5,26,5.2z"/>
		<path class="st1" d="M26.7,4.4c-0.2,0.1-0.3,0.3-0.5,0.5C26.3,4.8,26.5,4.6,26.7,4.4z"/>
		<linearGradient id="SVGID_4_" gradientUnits="userSpaceOnUse" x1="46.6927" y1="18.2634" x2="34.2615" y2="-0.4853">
			<stop  offset="0" style="stop-color:#E8491E"/>
			<stop  offset="1" style="stop-color:#AB2717"/>
		</linearGradient>
		<path class="st5" d="M52.6,14.1c0,0-6.1-8.1-9.2-10.9c-3.2-2.8-6.1-3.6-8.6-3.2c-1.2,0.2-4.2,1.6-5.9,2.6
			c-0.9,0.5-1.6,1.2-2.2,1.7c-0.2,0.2-0.4,0.3-0.5,0.5c-0.2,0.2-0.3,0.3-0.3,0.3s0,0,0,0c0.3-0.1,2-0.7,4.5,1.1
			c0.8,0.6,1.8,1.4,2.8,2.6c3.7,4.5,7,11.4,7,11.4l-4.8,2.3c0,0,4.5,0.8,7.9,1.6c2.2,0.6,7.5,2.3,7.5,2.3s2.5-5.7,3.4-7.8
			c1.1-2.9,2.3-6.8,2.3-6.8L52.6,14.1z"/>
	</g>
	<linearGradient id="SVGID_5_" gradientUnits="userSpaceOnUse" x1="46.5576" y1="17.9906" x2="34.2911" y2="-0.5098">
		<stop  offset="0" style="stop-color:#ED6C1E"/>
		<stop  offset="1" style="stop-color:#AB2717"/>
	</linearGradient>
	<path class="st6" d="M52.5,14.6c0,0-6.2-8.4-9.4-11.2c-3.2-2.8-5.8-3.7-8.4-3.3c-1.2,0.2-4.2,1.6-5.9,2.6c-0.9,0.5-1.6,1.2-2.2,1.7
		c-0.2,0.2-0.4,0.3-0.5,0.5c-0.2,0.2-0.3,0.3-0.3,0.3s0,0,0,0c0.3-0.1,2.1-0.7,4.6,1c0.8,0.6,1.9,1.3,2.9,2.5
		c3.7,4.5,7.3,11.7,7.3,11.7l-4.4,2.1c0,0,3.6,0.6,7,1.4c2.2,0.6,7.4,2.2,7.4,2.2s2.4-5.4,3.2-7.5c1.1-2.9,2.2-6.1,2.2-6.1
		L52.5,14.6z"/>
	<linearGradient id="SVGID_6_" gradientUnits="userSpaceOnUse" x1="21.6088" y1="37.5669" x2="1.0689" y2="23.2695">
		<stop  offset="0" style="stop-color:#ED6C1E"/>
		<stop  offset="1" style="stop-color:#AB2717"/>
	</linearGradient>
	<path class="st7" d="M28.4,36.5c0,0-9.8-3.3-16.8-7.6c-4.3-2.7-6.4-4.9-7.5-6.4c-1.4-1.8-1.2-2.8-1.1-3c0,0,0,0,0,0
		c0,0,0,0.1-0.1,0.1c0,0.1-0.1,0.2-0.2,0.3C2.1,21.3,0.1,25.2,0,26c-0.1,0.9,0.2,3.5,8,10c7.8,6.5,16.6,9.8,16.6,9.8l-2,2.9
		l12.6-4.5l-5.6-11.4L28.4,36.5z"/>
	<g>
		<path class="st8" d="M59.4,33.6c-1.5-1.5-3.5-2.4-5.7-2.4c-3.9,0-7.9,3-7.9,8c0,3.9,3,7.9,8,7.9c2.1,0,4.1-0.8,5.6-2.3l0.1-0.1
			l0.1-0.1v-0.2V40v-0.4h-0.4h-5.6h-0.4V40v1.4v0.4h0.4h3.8v1.9c-1,0.8-2.3,1.2-3.5,1.2c-3.3,0-5.8-2.5-5.8-5.7
			c0-3.2,2.6-5.8,5.7-5.8c1.6,0,3.1,0.6,4.2,1.7l0.1,0.1l0.3,0.3l0.3-0.3l1-1l0.3-0.3l-0.3-0.3L59.4,33.6z"/>
		<polygon class="st8" points="62.8,44.6 62.8,39.9 72.2,39.9 72.6,39.9 72.6,39.5 72.6,38.1 72.6,37.7 72.2,37.7 62.8,37.7 
			62.8,33.8 73.3,33.8 73.7,33.8 73.7,33.4 73.7,32 73.7,31.6 73.3,31.6 61,31.6 60.6,31.6 60.6,32 60.6,46.5 60.6,46.8 61,46.8 
			74.1,46.8 74.4,46.8 74.4,46.5 74.4,45 74.4,44.6 74.1,44.6 		"/>
		<path class="st8" d="M82.2,31.2c-3.9,0-7.9,3-7.9,8c0,3.9,3,7.9,8,7.9c3.9,0,7.9-3,7.9-8C90.2,35.3,87.2,31.2,82.2,31.2z
			 M82.2,33.4c3.3,0,5.8,2.5,5.8,5.8c0,3.6-2.9,5.8-5.7,5.8c-3.6,0-5.8-2.9-5.8-5.7C76.5,35.6,79.4,33.4,82.2,33.4z"/>
		<path class="st8" d="M104.4,39.7c-1.1-0.7-3-1.2-5.8-1.7c-2.4-0.4-4.1-1.3-4.1-2.3c0-0.8,0.7-1.3,1.4-1.5c0.8-0.3,1.8-0.6,2.8-0.6
			c0,0,0,0,0.1,0c2.2,0,3.9,1,4,2.2l0,0.2l0,0.4l0.4,0l1.6-0.1l0.4,0l0-0.4l0-0.2c-0.2-2.6-2.7-4.3-6.3-4.3h0c0,0-0.1,0-0.1,0
			c-1.4,0-3,0.4-4.1,1c-1.6,0.8-2.4,2-2.4,3.5c0,1.1,0.5,2,1.5,2.7c1,0.7,2.4,1.3,4.2,1.6c5.1,0.8,5.8,1.5,5.8,2.2
			c0,0.6-0.5,1.3-1.3,1.8c-0.9,0.6-2.2,0.9-3.5,0.9c0,0-0.1,0-0.1,0c-1.4,0-4.8-0.3-5.2-2.8l0-0.2l0-0.3l-0.3,0l-1.6,0l-0.4,0
			l0.1,0.4l0,0.2c0.5,3.6,4.3,4.9,7.5,4.9c0,0,0.1,0,0.1,0c2.7,0,4.3-0.9,5.2-1.6c1.2-0.9,1.8-2.2,1.8-3.4
			C105.9,41.1,105.4,40.3,104.4,39.7z M102.4,34.4C102.4,34.4,102.4,34.4,102.4,34.4C102.4,34.4,102.4,34.4,102.4,34.4z M98.8,33.2
			c0,0,0.1,0,0.1,0C98.8,33.2,98.8,33.2,98.8,33.2z M99,33.2c0,0,0.1,0,0.1,0C99,33.2,99,33.2,99,33.2z M99.2,33.2c0,0,0.1,0,0.1,0
			C99.2,33.2,99.2,33.2,99.2,33.2z M99.4,33.2C99.4,33.2,99.5,33.2,99.4,33.2C99.5,33.2,99.4,33.2,99.4,33.2z M99.6,33.2
			C99.6,33.2,99.7,33.2,99.6,33.2C99.7,33.2,99.6,33.2,99.6,33.2z M99.8,33.3C99.8,33.3,99.9,33.3,99.8,33.3
			C99.9,33.3,99.8,33.3,99.8,33.3z M100,33.3C100,33.3,100.1,33.3,100,33.3C100.1,33.3,100,33.3,100,33.3z M100.2,33.3
			C100.2,33.3,100.2,33.3,100.2,33.3C100.2,33.3,100.2,33.3,100.2,33.3z M100.4,33.4C100.4,33.4,100.4,33.4,100.4,33.4
			C100.4,33.4,100.4,33.4,100.4,33.4z M100.6,33.4C100.6,33.4,100.6,33.4,100.6,33.4C100.6,33.4,100.6,33.4,100.6,33.4z M100.7,33.5
			C100.8,33.5,100.8,33.5,100.7,33.5C100.8,33.5,100.8,33.5,100.7,33.5z M100.9,33.5C100.9,33.5,101,33.6,100.9,33.5
			C101,33.6,100.9,33.5,100.9,33.5z M101.1,33.6C101.1,33.6,101.1,33.6,101.1,33.6C101.1,33.6,101.1,33.6,101.1,33.6z M101.3,33.7
			C101.3,33.7,101.3,33.7,101.3,33.7C101.3,33.7,101.3,33.7,101.3,33.7z M101.4,33.7C101.4,33.8,101.5,33.8,101.4,33.7
			C101.5,33.8,101.4,33.8,101.4,33.7z M101.6,33.8C101.6,33.8,101.6,33.9,101.6,33.8C101.6,33.9,101.6,33.8,101.6,33.8z M101.7,33.9
			C101.8,33.9,101.8,33.9,101.7,33.9C101.8,33.9,101.8,33.9,101.7,33.9z M101.9,34C101.9,34,101.9,34,101.9,34
			C101.9,34,101.9,34,101.9,34z M102,34.1C102,34.1,102,34.1,102,34.1C102,34.1,102,34.1,102,34.1z M102.1,34.2
			C102.2,34.2,102.2,34.2,102.1,34.2C102.2,34.2,102.2,34.2,102.1,34.2z M102.3,34.3C102.3,34.3,102.3,34.3,102.3,34.3
			C102.3,34.3,102.3,34.3,102.3,34.3z M102.5,34.5C102.5,34.5,102.5,34.5,102.5,34.5C102.5,34.5,102.5,34.5,102.5,34.5z M102.6,34.6
			C102.6,34.6,102.6,34.7,102.6,34.6C102.6,34.7,102.6,34.6,102.6,34.6z M102.7,34.7C102.7,34.8,102.7,34.8,102.7,34.7
			C102.7,34.8,102.7,34.8,102.7,34.7z M102.8,34.9C102.8,34.9,102.8,34.9,102.8,34.9C102.8,34.9,102.8,34.9,102.8,34.9z M102.8,35
			C102.8,35,102.8,35,102.8,35C102.8,35,102.8,35,102.8,35z M102.9,35.1C102.9,35.1,102.9,35.2,102.9,35.1
			C102.9,35.2,102.9,35.1,102.9,35.1z M102.9,35.3C102.9,35.3,103,35.3,102.9,35.3C103,35.3,102.9,35.3,102.9,35.3z M103,35.4
			C103,35.4,103,35.4,103,35.4C103,35.4,103,35.4,103,35.4z M103,35.6C103,35.6,103,35.6,103,35.6C103,35.6,103,35.6,103,35.6z
			 M102.4,32.6C102.5,32.6,102.5,32.6,102.4,32.6C102.5,32.6,102.5,32.6,102.4,32.6z M102.6,32.7C102.7,32.7,102.7,32.7,102.6,32.7
			C102.7,32.7,102.7,32.7,102.6,32.7z M102.8,32.8C102.9,32.8,102.9,32.9,102.8,32.8C102.9,32.9,102.9,32.8,102.8,32.8z M103,33
			C103.1,33,103.1,33,103,33C103.1,33,103.1,33,103,33z M103.9,33.8C103.9,33.8,103.9,33.8,103.9,33.8
			C103.9,33.8,103.9,33.8,103.9,33.8z M104.6,35.7c0-0.1,0-0.1,0-0.2C104.6,35.6,104.6,35.6,104.6,35.7z M104.6,35.4
			c0,0,0-0.1,0-0.1C104.6,35.3,104.6,35.4,104.6,35.4z M104.5,35.2c0,0,0-0.1,0-0.1C104.5,35.1,104.5,35.1,104.5,35.2z M104.5,35
			c0,0,0-0.1,0-0.1C104.5,34.9,104.5,34.9,104.5,35z M104.4,34.8c0,0,0-0.1,0-0.1C104.4,34.7,104.4,34.7,104.4,34.8z M104.3,34.6
			C104.3,34.5,104.3,34.5,104.3,34.6C104.3,34.5,104.3,34.5,104.3,34.6z M104.2,34.4C104.2,34.3,104.2,34.3,104.2,34.4
			C104.2,34.3,104.2,34.3,104.2,34.4z M104.1,34.2C104.1,34.1,104.1,34.1,104.1,34.2C104.1,34.1,104.1,34.1,104.1,34.2z M104,34
			C104,34,104,33.9,104,34C104,33.9,104,34,104,34z M103.6,33.5C103.6,33.4,103.6,33.4,103.6,33.5C103.6,33.4,103.6,33.4,103.6,33.5
			z M103.8,33.6C103.7,33.6,103.7,33.6,103.8,33.6C103.7,33.6,103.7,33.6,103.8,33.6z M103.2,33.1C103.2,33.1,103.3,33.1,103.2,33.1
			C103.3,33.1,103.2,33.1,103.2,33.1z M103.4,33.2C103.4,33.3,103.4,33.3,103.4,33.2C103.4,33.3,103.4,33.3,103.4,33.2z M98.7,31.7
			c0,0,0.1,0,0.1,0C98.7,31.7,98.6,31.7,98.7,31.7C98.6,31.7,98.6,31.7,98.7,31.7z M102.3,32.5C102.3,32.5,102.2,32.5,102.3,32.5
			C102.2,32.5,102.3,32.5,102.3,32.5z M102.1,32.4C102.1,32.4,102,32.4,102.1,32.4C102,32.4,102.1,32.4,102.1,32.4z M101.9,32.3
			C101.8,32.3,101.8,32.3,101.9,32.3C101.8,32.3,101.8,32.3,101.9,32.3z M101.6,32.2c0,0-0.1,0-0.1,0
			C101.5,32.2,101.6,32.2,101.6,32.2z M101.4,32.1c0,0-0.1,0-0.1,0C101.3,32.1,101.3,32.1,101.4,32.1z M101.1,32c0,0-0.1,0-0.1,0
			C101,32,101.1,32,101.1,32z M100.8,32c0,0-0.1,0-0.1,0C100.8,31.9,100.8,32,100.8,32z M100.6,31.9c0,0-0.1,0-0.1,0
			C100.5,31.9,100.5,31.9,100.6,31.9z M100.3,31.9c0,0-0.1,0-0.1,0C100.2,31.8,100.2,31.8,100.3,31.9z M100,31.8c0,0-0.1,0-0.1,0
			C99.9,31.8,100,31.8,100,31.8z M99.7,31.8c0,0-0.1,0-0.1,0C99.6,31.8,99.7,31.8,99.7,31.8z M99.4,31.7c-0.1,0-0.1,0-0.2,0
			C99.3,31.7,99.4,31.7,99.4,31.7z M99.1,31.7c-0.1,0-0.1,0-0.2,0C99,31.7,99.1,31.7,99.1,31.7z M94,44C94,44,94,44,94,44
			C94,44,94,44,94,44z M98.7,45.4C98.7,45.4,98.6,45.4,98.7,45.4C98.6,45.4,98.7,45.4,98.7,45.4z M98.5,45.4
			C98.5,45.4,98.5,45.4,98.5,45.4C98.5,45.4,98.5,45.4,98.5,45.4z M98.4,45.4C98.3,45.4,98.3,45.4,98.4,45.4
			C98.3,45.4,98.3,45.4,98.4,45.4z M98.2,45.4C98.2,45.4,98.1,45.4,98.2,45.4C98.1,45.4,98.2,45.4,98.2,45.4z M98,45.4
			C98,45.4,97.9,45.4,98,45.4C97.9,45.4,98,45.4,98,45.4z M97.8,45.4C97.8,45.4,97.7,45.4,97.8,45.4C97.7,45.4,97.8,45.4,97.8,45.4z
			 M97.6,45.4c0,0-0.1,0-0.1,0C97.5,45.4,97.6,45.4,97.6,45.4z M97.4,45.3c0,0-0.1,0-0.1,0C97.3,45.3,97.3,45.3,97.4,45.3z
			 M97.2,45.3c0,0-0.1,0-0.1,0C97.1,45.3,97.1,45.3,97.2,45.3z M96.9,45.3c0,0-0.1,0-0.1,0C96.9,45.3,96.9,45.3,96.9,45.3z
			 M96.7,45.2c0,0-0.1,0-0.1,0C96.6,45.2,96.7,45.2,96.7,45.2z M96.5,45.2c0,0-0.1,0-0.1,0C96.4,45.2,96.5,45.2,96.5,45.2z
			 M96.3,45.1c0,0-0.1,0-0.1,0C96.2,45.1,96.2,45.1,96.3,45.1z M96.1,45.1c0,0-0.1,0-0.1,0C96,45.1,96,45.1,96.1,45.1z M95.8,45
			c0,0-0.1,0-0.1,0C95.8,45,95.8,45,95.8,45z M95.6,44.9c0,0-0.1,0-0.1,0C95.5,44.9,95.6,44.9,95.6,44.9z M95.4,44.9
			c0,0-0.1,0-0.1,0C95.3,44.8,95.4,44.8,95.4,44.9z M95.2,44.8c0,0-0.1,0-0.1,0C95.1,44.7,95.2,44.8,95.2,44.8z M95,44.7
			C94.9,44.7,94.9,44.6,95,44.7C94.9,44.6,94.9,44.7,95,44.7z M94.8,44.6C94.7,44.5,94.7,44.5,94.8,44.6
			C94.7,44.5,94.7,44.5,94.8,44.6z M94.6,44.4C94.6,44.4,94.5,44.4,94.6,44.4C94.5,44.4,94.6,44.4,94.6,44.4z M94.4,44.3
			C94.4,44.3,94.3,44.3,94.4,44.3C94.3,44.3,94.4,44.3,94.4,44.3z M94.2,44.2C94.2,44.2,94.2,44.1,94.2,44.2
			C94.2,44.1,94.2,44.2,94.2,44.2z M93.9,43.9C93.9,43.8,93.9,43.8,93.9,43.9C93.9,43.8,93.9,43.8,93.9,43.9z M93.8,43.7
			C93.7,43.7,93.7,43.6,93.8,43.7C93.7,43.6,93.7,43.7,93.8,43.7z M93.6,43.5C93.6,43.5,93.6,43.5,93.6,43.5
			C93.6,43.5,93.6,43.5,93.6,43.5z M93.5,43.3C93.5,43.3,93.5,43.3,93.5,43.3C93.5,43.3,93.5,43.3,93.5,43.3z M93.4,43.1
			C93.4,43.1,93.4,43,93.4,43.1C93.4,43,93.4,43.1,93.4,43.1z M93.3,42.9C93.3,42.8,93.3,42.8,93.3,42.9
			C93.3,42.8,93.3,42.8,93.3,42.9z M93.2,42.6C93.2,42.6,93.2,42.6,93.2,42.6C93.2,42.6,93.2,42.6,93.2,42.6z M94,45.7
			c0,0-0.1-0.1-0.1-0.1C93.9,45.7,93.9,45.7,94,45.7z M93.7,45.6c0,0-0.1-0.1-0.1-0.1C93.6,45.5,93.7,45.5,93.7,45.6z M93.5,45.4
			c0,0-0.1-0.1-0.1-0.1C93.4,45.3,93.4,45.4,93.5,45.4z M93.3,45.2c0,0-0.1-0.1-0.1-0.1C93.2,45.2,93.2,45.2,93.3,45.2z M91.6,42.3
			c0,0.1,0,0.2,0,0.3C91.6,42.5,91.6,42.4,91.6,42.3z M91.7,42.7c0,0.1,0,0.1,0,0.2C91.7,42.8,91.7,42.8,91.7,42.7z M91.7,43
			c0,0.1,0,0.1,0.1,0.2C91.8,43.1,91.8,43.1,91.7,43z M91.8,43.3c0,0.1,0,0.1,0.1,0.2C91.9,43.4,91.9,43.4,91.8,43.3z M92,43.6
			c0,0,0,0.1,0.1,0.1C92,43.7,92,43.6,92,43.6z M92.1,43.8c0,0,0,0.1,0.1,0.1C92.1,43.9,92.1,43.9,92.1,43.8z M92.2,44.1
			c0,0,0.1,0.1,0.1,0.1C92.3,44.2,92.3,44.1,92.2,44.1z M92.4,44.3c0,0,0.1,0.1,0.1,0.1C92.4,44.4,92.4,44.4,92.4,44.3z M92.7,44.8
			c0,0,0.1,0.1,0.1,0.1C92.8,44.8,92.8,44.8,92.7,44.8z M92.6,44.5c0,0,0.1,0.1,0.1,0.1C92.6,44.6,92.6,44.6,92.6,44.5z M93,45.1
			c0,0-0.1-0.1-0.1-0.1C93,45,93,45,93,45.1z M98.7,46.9C98.7,46.9,98.6,46.9,98.7,46.9c0,0,0,0,0.1,0
			C98.8,46.9,98.7,46.9,98.7,46.9z M94.1,45.8c0,0,0.1,0,0.1,0.1C94.2,45.8,94.1,45.8,94.1,45.8z M94.3,45.9c0,0,0.1,0,0.1,0.1
			C94.4,46,94.4,45.9,94.3,45.9z M94.6,46c0,0,0.1,0,0.1,0.1C94.7,46.1,94.6,46.1,94.6,46z M94.9,46.2c0,0,0.1,0,0.1,0.1
			C95,46.2,94.9,46.2,94.9,46.2z M95.1,46.3c0,0,0.1,0,0.1,0.1C95.2,46.3,95.2,46.3,95.1,46.3z M95.4,46.4c0,0,0.1,0,0.1,0
			C95.5,46.4,95.5,46.4,95.4,46.4z M95.7,46.5c0,0,0.1,0,0.1,0C95.8,46.5,95.8,46.5,95.7,46.5z M96,46.5c0,0,0.1,0,0.1,0
			C96.1,46.6,96,46.5,96,46.5z M96.3,46.6c0,0,0.1,0,0.1,0C96.4,46.6,96.3,46.6,96.3,46.6z M96.6,46.7c0.1,0,0.1,0,0.2,0
			C96.7,46.7,96.6,46.7,96.6,46.7z M96.9,46.7c0.1,0,0.1,0,0.2,0C97,46.7,96.9,46.7,96.9,46.7z M97.2,46.8c0.1,0,0.1,0,0.2,0
			C97.3,46.8,97.2,46.8,97.2,46.8z M97.5,46.8c0.1,0,0.1,0,0.2,0C97.6,46.8,97.5,46.8,97.5,46.8z M97.8,46.8c0.1,0,0.1,0,0.2,0
			C97.9,46.8,97.8,46.8,97.8,46.8z M98,46.8c0.1,0,0.1,0,0.2,0C98.1,46.9,98.1,46.8,98,46.8z M98.3,46.9c0,0,0.1,0,0.1,0
			C98.4,46.9,98.4,46.9,98.3,46.9z"/>
		<path class="st8" d="M114.8,31.2c-3.9,0-7.9,3-7.9,8c0,3.9,3,7.9,8,7.9c3.9,0,7.9-3,7.9-8C122.8,35.3,119.8,31.2,114.8,31.2z
			 M114.8,33.4c3.3,0,5.8,2.5,5.8,5.8c0,3.6-2.9,5.8-5.7,5.8c-3.6,0-5.8-2.9-5.8-5.7C109,35.6,111.9,33.4,114.8,33.4z"/>
		<polygon class="st8" points="137.2,44.6 126.3,44.6 126.3,32 126.3,31.6 125.9,31.6 124.4,31.6 124.1,31.6 124.1,32 124.1,46.5 
			124.1,46.8 124.4,46.8 137.2,46.8 137.6,46.8 137.6,46.5 137.6,45 137.6,44.6 		"/>
	</g>
	<g>
		<linearGradient id="SVGID_7_" gradientUnits="userSpaceOnUse" x1="11.961" y1="21.4789" x2="46.1981" y2="34.5216">
			<stop  offset="0" style="stop-color:#0478BB"/>
			<stop  offset="1" style="stop-color:#0F1024"/>
		</linearGradient>
		<path class="st9" d="M4.1,22.5c1.4-0.7,4.5-1.6,10.7-0.3C33,26,45,34.8,45,34.8S30.4,21.4,8.4,17.5c-3.3-0.6-4.8,1-5.4,2
			C2.9,19.7,2.7,20.7,4.1,22.5z"/>
		<path class="st1" d="M2.8,19.9c0.1-0.1,0.1-0.3,0.2-0.3C2.9,19.7,2.8,19.8,2.8,19.9z"/>
		<linearGradient id="SVGID_8_" gradientUnits="userSpaceOnUse" x1="21.6978" y1="37.9783" x2="0.9111" y2="23.5091">
			<stop  offset="0" style="stop-color:#E8491E"/>
			<stop  offset="1" style="stop-color:#AB2717"/>
		</linearGradient>
		<path class="st10" d="M28.2,36.2c0,0-9.5-3.2-16.5-7.5c-4.3-2.7-6.5-4.7-7.6-6.1c-1.4-1.8-1.2-2.8-1.1-3c0,0,0,0,0,0
			c0,0,0,0.1-0.1,0.1c0,0.1-0.1,0.2-0.2,0.3C2.1,21.3,0.1,25.2,0,26c-0.1,0.9,0,3.7,7.8,10.2c7.8,6.5,16.3,9.8,16.3,9.8l-2.5,3.5
			l14.1-5.1L29.6,32L28.2,36.2z"/>
		<path class="st3" d="M3,19.4C3,19.4,3,19.4,3,19.4C3,19.4,3,19.4,3,19.4z"/>
	</g>
	<g>
		<linearGradient id="SVGID_9_" gradientUnits="userSpaceOnUse" x1="28.109" y1="13.4243" x2="48.9839" y2="53.3321">
			<stop  offset="0" style="stop-color:#0478BB"/>
			<stop  offset="1" style="stop-color:#0F1024"/>
		</linearGradient>
		<path class="st11" d="M26,5.2c-0.8,1-1.6,2.7-1.3,5.4c0.5,5,1,8.9,5.6,18.5C36.7,42.7,46.9,50,46.9,50s-8.7-7.8-13.8-23.8
			c-3.6-11.3-3.2-17.3-2.6-20C28,4.5,26.3,5,26,5.2z"/>
		<path class="st1" d="M26.7,4.4c-0.2,0.1-0.3,0.3-0.5,0.5C26.3,4.8,26.5,4.6,26.7,4.4z"/>
		<linearGradient id="SVGID_10_" gradientUnits="userSpaceOnUse" x1="46.6927" y1="18.2634" x2="34.2615" y2="-0.4853">
			<stop  offset="0" style="stop-color:#E8491E"/>
			<stop  offset="1" style="stop-color:#AB2717"/>
		</linearGradient>
		<path class="st12" d="M52.6,14.1c0,0-6.1-8.1-9.2-10.9c-3.2-2.8-6.1-3.6-8.6-3.2c-1.2,0.2-4.2,1.6-5.9,2.6
			c-0.9,0.5-1.6,1.2-2.2,1.7c-0.2,0.2-0.4,0.3-0.5,0.5c-0.2,0.2-0.3,0.3-0.3,0.3s0,0,0,0c0.3-0.1,2-0.7,4.5,1.1
			c0.8,0.6,1.8,1.4,2.8,2.6c3.7,4.5,7,11.4,7,11.4l-4.8,2.3c0,0,4.5,0.8,7.9,1.6c2.2,0.6,7.5,2.3,7.5,2.3s2.5-5.7,3.4-7.8
			c1.1-2.9,2.3-6.8,2.3-6.8L52.6,14.1z"/>
	</g>
	<linearGradient id="SVGID_11_" gradientUnits="userSpaceOnUse" x1="46.5576" y1="17.9906" x2="34.2911" y2="-0.5098">
		<stop  offset="0" style="stop-color:#ED6C1E"/>
		<stop  offset="1" style="stop-color:#AB2717"/>
	</linearGradient>
	<path class="st13" d="M52.5,14.6c0,0-6.2-8.4-9.4-11.2c-3.2-2.8-5.8-3.7-8.4-3.3c-1.2,0.2-4.2,1.6-5.9,2.6
		c-0.9,0.5-1.6,1.2-2.2,1.7c-0.2,0.2-0.4,0.3-0.5,0.5c-0.2,0.2-0.3,0.3-0.3,0.3s0,0,0,0c0.3-0.1,2.1-0.7,4.6,1
		c0.8,0.6,1.9,1.3,2.9,2.5c3.7,4.5,7.3,11.7,7.3,11.7l-4.4,2.1c0,0,3.6,0.6,7,1.4c2.2,0.6,7.4,2.2,7.4,2.2s2.4-5.4,3.2-7.5
		c1.1-2.9,2.2-6.1,2.2-6.1L52.5,14.6z"/>
	<linearGradient id="SVGID_12_" gradientUnits="userSpaceOnUse" x1="21.6088" y1="37.5669" x2="1.0689" y2="23.2695">
		<stop  offset="0" style="stop-color:#ED6C1E"/>
		<stop  offset="1" style="stop-color:#AB2717"/>
	</linearGradient>
	<path class="st14" d="M28.4,36.5c0,0-9.8-3.3-16.8-7.6c-4.3-2.7-6.4-4.9-7.5-6.4c-1.4-1.8-1.2-2.8-1.1-3c0,0,0,0,0,0
		c0,0,0,0.1-0.1,0.1c0,0.1-0.1,0.2-0.2,0.3C2.1,21.3,0.1,25.2,0,26c-0.1,0.9,0.2,3.5,8,10c7.8,6.5,16.6,9.8,16.6,9.8l-2,2.9
		l12.6-4.5l-5.6-11.4L28.4,36.5z"/>
	<g>
		<path class="st8" d="M59.4,33.6c-1.5-1.5-3.5-2.4-5.7-2.4c-3.9,0-7.9,3-7.9,8c0,3.9,3,7.9,8,7.9c2.1,0,4.1-0.8,5.6-2.3l0.1-0.1
			l0.1-0.1v-0.2V40v-0.4h-0.4h-5.6h-0.4V40v1.4v0.4h0.4h3.8v1.9c-1,0.8-2.3,1.2-3.5,1.2c-3.3,0-5.8-2.5-5.8-5.7
			c0-3.2,2.6-5.8,5.7-5.8c1.6,0,3.1,0.6,4.2,1.7l0.1,0.1l0.3,0.3l0.3-0.3l1-1l0.3-0.3l-0.3-0.3L59.4,33.6z"/>
		<polygon class="st8" points="62.8,44.6 62.8,39.9 72.2,39.9 72.6,39.9 72.6,39.5 72.6,38.1 72.6,37.7 72.2,37.7 62.8,37.7 
			62.8,33.8 73.3,33.8 73.7,33.8 73.7,33.4 73.7,32 73.7,31.6 73.3,31.6 61,31.6 60.6,31.6 60.6,32 60.6,46.5 60.6,46.8 61,46.8 
			74.1,46.8 74.4,46.8 74.4,46.5 74.4,45 74.4,44.6 74.1,44.6 		"/>
		<path class="st8" d="M82.2,31.2c-3.9,0-7.9,3-7.9,8c0,3.9,3,7.9,8,7.9c3.9,0,7.9-3,7.9-8C90.2,35.3,87.2,31.2,82.2,31.2z
			 M82.2,33.4c3.3,0,5.8,2.5,5.8,5.8c0,3.6-2.9,5.8-5.7,5.8c-3.6,0-5.8-2.9-5.8-5.7C76.5,35.6,79.4,33.4,82.2,33.4z"/>
		<path class="st8" d="M104.4,39.7c-1.1-0.7-3-1.2-5.8-1.7c-2.4-0.4-4.1-1.3-4.1-2.3c0-0.8,0.7-1.3,1.4-1.5c0.8-0.3,1.8-0.6,2.8-0.6
			c0,0,0,0,0.1,0c2.2,0,3.9,1,4,2.2l0,0.2l0,0.4l0.4,0l1.6-0.1l0.4,0l0-0.4l0-0.2c-0.2-2.6-2.7-4.3-6.3-4.3h0c0,0-0.1,0-0.1,0
			c-1.4,0-3,0.4-4.1,1c-1.6,0.8-2.4,2-2.4,3.5c0,1.1,0.5,2,1.5,2.7c1,0.7,2.4,1.3,4.2,1.6c5.1,0.8,5.8,1.5,5.8,2.2
			c0,0.6-0.5,1.3-1.3,1.8c-0.9,0.6-2.2,0.9-3.5,0.9c0,0-0.1,0-0.1,0c-1.4,0-4.8-0.3-5.2-2.8l0-0.2l0-0.3l-0.3,0l-1.6,0l-0.4,0
			l0.1,0.4l0,0.2c0.5,3.6,4.3,4.9,7.5,4.9c0,0,0.1,0,0.1,0c2.7,0,4.3-0.9,5.2-1.6c1.2-0.9,1.8-2.2,1.8-3.4
			C105.9,41.1,105.4,40.3,104.4,39.7z M102.4,34.4C102.4,34.4,102.4,34.4,102.4,34.4C102.4,34.4,102.4,34.4,102.4,34.4z M98.8,33.2
			c0,0,0.1,0,0.1,0C98.8,33.2,98.8,33.2,98.8,33.2z M99,33.2c0,0,0.1,0,0.1,0C99,33.2,99,33.2,99,33.2z M99.2,33.2c0,0,0.1,0,0.1,0
			C99.2,33.2,99.2,33.2,99.2,33.2z M99.4,33.2C99.4,33.2,99.5,33.2,99.4,33.2C99.5,33.2,99.4,33.2,99.4,33.2z M99.6,33.2
			C99.6,33.2,99.7,33.2,99.6,33.2C99.7,33.2,99.6,33.2,99.6,33.2z M99.8,33.3C99.8,33.3,99.9,33.3,99.8,33.3
			C99.9,33.3,99.8,33.3,99.8,33.3z M100,33.3C100,33.3,100.1,33.3,100,33.3C100.1,33.3,100,33.3,100,33.3z M100.2,33.3
			C100.2,33.3,100.2,33.3,100.2,33.3C100.2,33.3,100.2,33.3,100.2,33.3z M100.4,33.4C100.4,33.4,100.4,33.4,100.4,33.4
			C100.4,33.4,100.4,33.4,100.4,33.4z M100.6,33.4C100.6,33.4,100.6,33.4,100.6,33.4C100.6,33.4,100.6,33.4,100.6,33.4z M100.7,33.5
			C100.8,33.5,100.8,33.5,100.7,33.5C100.8,33.5,100.8,33.5,100.7,33.5z M100.9,33.5C100.9,33.5,101,33.6,100.9,33.5
			C101,33.6,100.9,33.5,100.9,33.5z M101.1,33.6C101.1,33.6,101.1,33.6,101.1,33.6C101.1,33.6,101.1,33.6,101.1,33.6z M101.3,33.7
			C101.3,33.7,101.3,33.7,101.3,33.7C101.3,33.7,101.3,33.7,101.3,33.7z M101.4,33.7C101.4,33.8,101.5,33.8,101.4,33.7
			C101.5,33.8,101.4,33.8,101.4,33.7z M101.6,33.8C101.6,33.8,101.6,33.9,101.6,33.8C101.6,33.9,101.6,33.8,101.6,33.8z M101.7,33.9
			C101.8,33.9,101.8,33.9,101.7,33.9C101.8,33.9,101.8,33.9,101.7,33.9z M101.9,34C101.9,34,101.9,34,101.9,34
			C101.9,34,101.9,34,101.9,34z M102,34.1C102,34.1,102,34.1,102,34.1C102,34.1,102,34.1,102,34.1z M102.1,34.2
			C102.2,34.2,102.2,34.2,102.1,34.2C102.2,34.2,102.2,34.2,102.1,34.2z M102.3,34.3C102.3,34.3,102.3,34.3,102.3,34.3
			C102.3,34.3,102.3,34.3,102.3,34.3z M102.5,34.5C102.5,34.5,102.5,34.5,102.5,34.5C102.5,34.5,102.5,34.5,102.5,34.5z M102.6,34.6
			C102.6,34.6,102.6,34.7,102.6,34.6C102.6,34.7,102.6,34.6,102.6,34.6z M102.7,34.7C102.7,34.8,102.7,34.8,102.7,34.7
			C102.7,34.8,102.7,34.8,102.7,34.7z M102.8,34.9C102.8,34.9,102.8,34.9,102.8,34.9C102.8,34.9,102.8,34.9,102.8,34.9z M102.8,35
			C102.8,35,102.8,35,102.8,35C102.8,35,102.8,35,102.8,35z M102.9,35.1C102.9,35.1,102.9,35.2,102.9,35.1
			C102.9,35.2,102.9,35.1,102.9,35.1z M102.9,35.3C102.9,35.3,103,35.3,102.9,35.3C103,35.3,102.9,35.3,102.9,35.3z M103,35.4
			C103,35.4,103,35.4,103,35.4C103,35.4,103,35.4,103,35.4z M103,35.6C103,35.6,103,35.6,103,35.6C103,35.6,103,35.6,103,35.6z
			 M102.4,32.6C102.5,32.6,102.5,32.6,102.4,32.6C102.5,32.6,102.5,32.6,102.4,32.6z M102.6,32.7C102.7,32.7,102.7,32.7,102.6,32.7
			C102.7,32.7,102.7,32.7,102.6,32.7z M102.8,32.8C102.9,32.8,102.9,32.9,102.8,32.8C102.9,32.9,102.9,32.8,102.8,32.8z M103,33
			C103.1,33,103.1,33,103,33C103.1,33,103.1,33,103,33z M103.9,33.8C103.9,33.8,103.9,33.8,103.9,33.8
			C103.9,33.8,103.9,33.8,103.9,33.8z M104.6,35.7c0-0.1,0-0.1,0-0.2C104.6,35.6,104.6,35.6,104.6,35.7z M104.6,35.4
			c0,0,0-0.1,0-0.1C104.6,35.3,104.6,35.4,104.6,35.4z M104.5,35.2c0,0,0-0.1,0-0.1C104.5,35.1,104.5,35.1,104.5,35.2z M104.5,35
			c0,0,0-0.1,0-0.1C104.5,34.9,104.5,34.9,104.5,35z M104.4,34.8c0,0,0-0.1,0-0.1C104.4,34.7,104.4,34.7,104.4,34.8z M104.3,34.6
			C104.3,34.5,104.3,34.5,104.3,34.6C104.3,34.5,104.3,34.5,104.3,34.6z M104.2,34.4C104.2,34.3,104.2,34.3,104.2,34.4
			C104.2,34.3,104.2,34.3,104.2,34.4z M104.1,34.2C104.1,34.1,104.1,34.1,104.1,34.2C104.1,34.1,104.1,34.1,104.1,34.2z M104,34
			C104,34,104,33.9,104,34C104,33.9,104,34,104,34z M103.6,33.5C103.6,33.4,103.6,33.4,103.6,33.5C103.6,33.4,103.6,33.4,103.6,33.5
			z M103.8,33.6C103.7,33.6,103.7,33.6,103.8,33.6C103.7,33.6,103.7,33.6,103.8,33.6z M103.2,33.1C103.2,33.1,103.3,33.1,103.2,33.1
			C103.3,33.1,103.2,33.1,103.2,33.1z M103.4,33.2C103.4,33.3,103.4,33.3,103.4,33.2C103.4,33.3,103.4,33.3,103.4,33.2z M98.7,31.7
			c0,0,0.1,0,0.1,0C98.7,31.7,98.6,31.7,98.7,31.7C98.6,31.7,98.6,31.7,98.7,31.7z M102.3,32.5C102.3,32.5,102.2,32.5,102.3,32.5
			C102.2,32.5,102.3,32.5,102.3,32.5z M102.1,32.4C102.1,32.4,102,32.4,102.1,32.4C102,32.4,102.1,32.4,102.1,32.4z M101.9,32.3
			C101.8,32.3,101.8,32.3,101.9,32.3C101.8,32.3,101.8,32.3,101.9,32.3z M101.6,32.2c0,0-0.1,0-0.1,0
			C101.5,32.2,101.6,32.2,101.6,32.2z M101.4,32.1c0,0-0.1,0-0.1,0C101.3,32.1,101.3,32.1,101.4,32.1z M101.1,32c0,0-0.1,0-0.1,0
			C101,32,101.1,32,101.1,32z M100.8,32c0,0-0.1,0-0.1,0C100.8,31.9,100.8,32,100.8,32z M100.6,31.9c0,0-0.1,0-0.1,0
			C100.5,31.9,100.5,31.9,100.6,31.9z M100.3,31.9c0,0-0.1,0-0.1,0C100.2,31.8,100.2,31.8,100.3,31.9z M100,31.8c0,0-0.1,0-0.1,0
			C99.9,31.8,100,31.8,100,31.8z M99.7,31.8c0,0-0.1,0-0.1,0C99.6,31.8,99.7,31.8,99.7,31.8z M99.4,31.7c-0.1,0-0.1,0-0.2,0
			C99.3,31.7,99.4,31.7,99.4,31.7z M99.1,31.7c-0.1,0-0.1,0-0.2,0C99,31.7,99.1,31.7,99.1,31.7z M94,44C94,44,94,44,94,44
			C94,44,94,44,94,44z M98.7,45.4C98.7,45.4,98.6,45.4,98.7,45.4C98.6,45.4,98.7,45.4,98.7,45.4z M98.5,45.4
			C98.5,45.4,98.5,45.4,98.5,45.4C98.5,45.4,98.5,45.4,98.5,45.4z M98.4,45.4C98.3,45.4,98.3,45.4,98.4,45.4
			C98.3,45.4,98.3,45.4,98.4,45.4z M98.2,45.4C98.2,45.4,98.1,45.4,98.2,45.4C98.1,45.4,98.2,45.4,98.2,45.4z M98,45.4
			C98,45.4,97.9,45.4,98,45.4C97.9,45.4,98,45.4,98,45.4z M97.8,45.4C97.8,45.4,97.7,45.4,97.8,45.4C97.7,45.4,97.8,45.4,97.8,45.4z
			 M97.6,45.4c0,0-0.1,0-0.1,0C97.5,45.4,97.6,45.4,97.6,45.4z M97.4,45.3c0,0-0.1,0-0.1,0C97.3,45.3,97.3,45.3,97.4,45.3z
			 M97.2,45.3c0,0-0.1,0-0.1,0C97.1,45.3,97.1,45.3,97.2,45.3z M96.9,45.3c0,0-0.1,0-0.1,0C96.9,45.3,96.9,45.3,96.9,45.3z
			 M96.7,45.2c0,0-0.1,0-0.1,0C96.6,45.2,96.7,45.2,96.7,45.2z M96.5,45.2c0,0-0.1,0-0.1,0C96.4,45.2,96.5,45.2,96.5,45.2z
			 M96.3,45.1c0,0-0.1,0-0.1,0C96.2,45.1,96.2,45.1,96.3,45.1z M96.1,45.1c0,0-0.1,0-0.1,0C96,45.1,96,45.1,96.1,45.1z M95.8,45
			c0,0-0.1,0-0.1,0C95.8,45,95.8,45,95.8,45z M95.6,44.9c0,0-0.1,0-0.1,0C95.5,44.9,95.6,44.9,95.6,44.9z M95.4,44.9
			c0,0-0.1,0-0.1,0C95.3,44.8,95.4,44.8,95.4,44.9z M95.2,44.8c0,0-0.1,0-0.1,0C95.1,44.7,95.2,44.8,95.2,44.8z M95,44.7
			C94.9,44.7,94.9,44.6,95,44.7C94.9,44.6,94.9,44.7,95,44.7z M94.8,44.6C94.7,44.5,94.7,44.5,94.8,44.6
			C94.7,44.5,94.7,44.5,94.8,44.6z M94.6,44.4C94.6,44.4,94.5,44.4,94.6,44.4C94.5,44.4,94.6,44.4,94.6,44.4z M94.4,44.3
			C94.4,44.3,94.3,44.3,94.4,44.3C94.3,44.3,94.4,44.3,94.4,44.3z M94.2,44.2C94.2,44.2,94.2,44.1,94.2,44.2
			C94.2,44.1,94.2,44.2,94.2,44.2z M93.9,43.9C93.9,43.8,93.9,43.8,93.9,43.9C93.9,43.8,93.9,43.8,93.9,43.9z M93.8,43.7
			C93.7,43.7,93.7,43.6,93.8,43.7C93.7,43.6,93.7,43.7,93.8,43.7z M93.6,43.5C93.6,43.5,93.6,43.5,93.6,43.5
			C93.6,43.5,93.6,43.5,93.6,43.5z M93.5,43.3C93.5,43.3,93.5,43.3,93.5,43.3C93.5,43.3,93.5,43.3,93.5,43.3z M93.4,43.1
			C93.4,43.1,93.4,43,93.4,43.1C93.4,43,93.4,43.1,93.4,43.1z M93.3,42.9C93.3,42.8,93.3,42.8,93.3,42.9
			C93.3,42.8,93.3,42.8,93.3,42.9z M93.2,42.6C93.2,42.6,93.2,42.6,93.2,42.6C93.2,42.6,93.2,42.6,93.2,42.6z M94,45.7
			c0,0-0.1-0.1-0.1-0.1C93.9,45.7,93.9,45.7,94,45.7z M93.7,45.6c0,0-0.1-0.1-0.1-0.1C93.6,45.5,93.7,45.5,93.7,45.6z M93.5,45.4
			c0,0-0.1-0.1-0.1-0.1C93.4,45.3,93.4,45.4,93.5,45.4z M93.3,45.2c0,0-0.1-0.1-0.1-0.1C93.2,45.2,93.2,45.2,93.3,45.2z M91.6,42.3
			c0,0.1,0,0.2,0,0.3C91.6,42.5,91.6,42.4,91.6,42.3z M91.7,42.7c0,0.1,0,0.1,0,0.2C91.7,42.8,91.7,42.8,91.7,42.7z M91.7,43
			c0,0.1,0,0.1,0.1,0.2C91.8,43.1,91.8,43.1,91.7,43z M91.8,43.3c0,0.1,0,0.1,0.1,0.2C91.9,43.4,91.9,43.4,91.8,43.3z M92,43.6
			c0,0,0,0.1,0.1,0.1C92,43.7,92,43.6,92,43.6z M92.1,43.8c0,0,0,0.1,0.1,0.1C92.1,43.9,92.1,43.9,92.1,43.8z M92.2,44.1
			c0,0,0.1,0.1,0.1,0.1C92.3,44.2,92.3,44.1,92.2,44.1z M92.4,44.3c0,0,0.1,0.1,0.1,0.1C92.4,44.4,92.4,44.4,92.4,44.3z M92.7,44.8
			c0,0,0.1,0.1,0.1,0.1C92.8,44.8,92.8,44.8,92.7,44.8z M92.6,44.5c0,0,0.1,0.1,0.1,0.1C92.6,44.6,92.6,44.6,92.6,44.5z M93,45.1
			c0,0-0.1-0.1-0.1-0.1C93,45,93,45,93,45.1z M98.7,46.9C98.7,46.9,98.6,46.9,98.7,46.9c0,0,0,0,0.1,0
			C98.8,46.9,98.7,46.9,98.7,46.9z M94.1,45.8c0,0,0.1,0,0.1,0.1C94.2,45.8,94.1,45.8,94.1,45.8z M94.3,45.9c0,0,0.1,0,0.1,0.1
			C94.4,46,94.4,45.9,94.3,45.9z M94.6,46c0,0,0.1,0,0.1,0.1C94.7,46.1,94.6,46.1,94.6,46z M94.9,46.2c0,0,0.1,0,0.1,0.1
			C95,46.2,94.9,46.2,94.9,46.2z M95.1,46.3c0,0,0.1,0,0.1,0.1C95.2,46.3,95.2,46.3,95.1,46.3z M95.4,46.4c0,0,0.1,0,0.1,0
			C95.5,46.4,95.5,46.4,95.4,46.4z M95.7,46.5c0,0,0.1,0,0.1,0C95.8,46.5,95.8,46.5,95.7,46.5z M96,46.5c0,0,0.1,0,0.1,0
			C96.1,46.6,96,46.5,96,46.5z M96.3,46.6c0,0,0.1,0,0.1,0C96.4,46.6,96.3,46.6,96.3,46.6z M96.6,46.7c0.1,0,0.1,0,0.2,0
			C96.7,46.7,96.6,46.7,96.6,46.7z M96.9,46.7c0.1,0,0.1,0,0.2,0C97,46.7,96.9,46.7,96.9,46.7z M97.2,46.8c0.1,0,0.1,0,0.2,0
			C97.3,46.8,97.2,46.8,97.2,46.8z M97.5,46.8c0.1,0,0.1,0,0.2,0C97.6,46.8,97.5,46.8,97.5,46.8z M97.8,46.8c0.1,0,0.1,0,0.2,0
			C97.9,46.8,97.8,46.8,97.8,46.8z M98,46.8c0.1,0,0.1,0,0.2,0C98.1,46.9,98.1,46.8,98,46.8z M98.3,46.9c0,0,0.1,0,0.1,0
			C98.4,46.9,98.4,46.9,98.3,46.9z"/>
		<path class="st8" d="M114.8,31.2c-3.9,0-7.9,3-7.9,8c0,3.9,3,7.9,8,7.9c3.9,0,7.9-3,7.9-8C122.8,35.3,119.8,31.2,114.8,31.2z
			 M114.8,33.4c3.3,0,5.8,2.5,5.8,5.8c0,3.6-2.9,5.8-5.7,5.8c-3.6,0-5.8-2.9-5.8-5.7C109,35.6,111.9,33.4,114.8,33.4z"/>
		<polygon class="st8" points="137.2,44.6 126.3,44.6 126.3,32 126.3,31.6 125.9,31.6 124.4,31.6 124.1,31.6 124.1,32 124.1,46.5 
			124.1,46.8 124.4,46.8 137.2,46.8 137.6,46.8 137.6,46.5 137.6,45 137.6,44.6 		"/>
	</g>
</g>
<path class="st1" d="M-402,662.7c0.8-1.5,1.4-2.8,1.8-3.6C-400.9,660.4-401.6,661.7-402,662.7z"/>
<path class="st3" d="M-399.6,657.9c0-0.1,0.1-0.1,0.1-0.1S-399.5,657.8-399.6,657.9z"/>
<rect x="-280.6" y="-1116.5" class="st15" width="302.2" height="302.2"/>
<rect x="76.9" y="-1116.5" class="st16" width="325.2" height="325.2"/>
<rect x="495.6" y="-1144.2" class="st17" width="329.9" height="329.9"/>
</svg>
